<?xml version="1.0" encoding="utf-8"?>
<!-- Generator: Adobe Illustrator 28.1.0, SVG Export Plug-In . SVG Version: 6.00 Build 0)  -->
<svg version="1.1" id="Layer_2_00000023263729776685241350000016939469039910964912_"
	 xmlns="http://www.w3.org/2000/svg" xmlns:xlink="http://www.w3.org/1999/xlink" x="0px" y="0px" viewBox="0 0 684.7 662.1"
	 style="enable-background:new 0 0 684.7 662.1;" xml:space="preserve">
<style type="text/css">
	.st0{fill:#E0BAAC;}
</style>
<g id="Layer_1-2">
	<g>
		<path class="st0" d="M314.2,361c5.3,24-7.7,47,4.3,62s37-27,44-52s4-40-14-26s-21,34-17,43s13,10,15,3s-10-1-9-21s21-30,24-25
			s2.6,38.5-26,71c-15,17-20-25-17-50s11-41,3-40s-16,12-22,22s-8.2,15.3-13.1,10.1l0,0c24.7-47.5,41.2-86.1,45.1-104.1
			c8-37-5.7-63.7-13-56c-18,19-24,44-29,75s-6,56-6,56s7-81,21-98s22-5,14,33s-34,89-77,162s-117,195-196,151s-10-249,58-344
			s124-136,148-115s14,74,8,87s-14,30-2.5,32.5c20.7,4.5,23-58,15-92S235.7,70.4,144.5,171c-87,96-159,248-142,358s110,103,185-6
			c36.9-53.6,70.4-110.6,95.9-159.1c-0.4,17.2,3.4,50.3,8.1,53.1c5,3,8,3,9-5s-12-17-11-31S309,337,314.2,361L314.2,361z"/>
		<path class="st0" d="M361.5,390c0.8,4,6,0,8-4s3-7,3-7s-1,11,5,15s12,1,17-6s5.6-0.2,9.3-0.6c3.7-0.4-0.3-10.4,4.7-14.4s7,5,12,5
			c2.7,0,7.6-2.1,13.2-7.1c-1.8,25.3,4.4,37.2,16.8,34.1c6.2-1.6,11.2-6.2,15-12.2c1.8,2.1,4.1,3.9,7,5.2c12.9,5.9,20-11,20-11
			s-9,11-18,6c-2.5-1.4-4.6-3.1-6.3-4.9c6.4-12.6,8.5-28.4,7.3-33.1c-2-8-8.5-6.7-13,0c-3.4,5.1-6.6,24.1,1.5,35.8
			c-0.3,0.4-0.7,0.8-1,1.2c-9.4,10-21.4,4-20.4-21c0.1-3.2,0.4-6.9,0.9-11c1.7-2.4,3.4-5,5.1-8c11-19,20-46,20-46s-12.7,28.7-24,45
			c3.8-28,12.6-67.3,22-90c12-29,14-19,14-12s-1,14-1,14s5-19,2-26s-15,7-35,73c-6.4,21.2-10.4,39-12.1,53.4
			c-8.3,9.2-14.1,12.5-14.9,4.6c-1-10-6-8-11-1c-3.1,4.4-5,10-8.4,9.1c-1.5-0.4-5.6-9.1-3.6-17.1s0-12-4-11s1,15,0,23s-8,19-12,15
			s-2-15-6-15s-6,3-7,7S360.5,385,361.5,390L361.5,390z M463.5,363c3-11,8-12,10-8c1.7,3.4-0.3,20.4-6.7,31.6
			C461.6,379.8,461.3,371.1,463.5,363z"/>
		<path class="st0" d="M498.2,429.3c-8.2-1.9-9.6-1.9-3,1.4s17.8,6.1,23.7-7c5.9-13.1-10.4-29.1-19.3-39.5
			c-8.9-10.3-2.2-18.8,1.2-19.8c3.4-1,4.5-4.3,2.1-6.6c-4.1-3.9-15.2,10.4-9.2,21.5c5.9,11.1,19.3,24.6,21.5,36.8
			C517.5,428.4,506.3,431.2,498.2,429.3L498.2,429.3z"/>
		<path class="st0" d="M613.2,9.4c14.7,6.8,3.3,14.2-1.7,13.9s-11.5,9.4-2.1,11.4c7.8,1.7,4.4-7.8,8.4-7.6c4,0.2,10.6,7.6,10.9,2.6
			c0.3-5,3.1-30.4-22-29.7c-25.1,0.7-75.9,34.1-142.2,153.8c-66.3,119.7-83,189.9-83,189.9s53-132.4,114-226.4
			C534.5,57.1,590.2-1.2,613.2,9.4L613.2,9.4z"/>
		<path class="st0" d="M587.4,471.4c-25.9,16.1-47.2,42.3-67.7,74.8c-1.9-20.3-3-38.8,1-53.6c7.5-28.1-2-33-8.2-30.4s0.8,4.5,0,13.5
			c-0.9,9-10.4,36.2-19.3,41.3c-8.9,5.2-10.3-17.8-6.3-19.9c4-2.1-4.1-7.9-9,1.1s-3.7,19.1-14.7,19.2c-3.5,0.1-5.1-3.5-5.5-8.4
			c4.7-3.6,8.2-6.6,8.2-6.6s-3.5,2.8-8.2,6c-0.4-10.5,4.9-26.6,10.9-28c9-2.1,9,2.9,8.1,5.9s-2.9,8-2.9,8s11.9-9.2,3.7-16.1
			s-14,1.2-18.9,9.3c-2.9,4.9-6.5,15.9-5.8,23.9c-6,3.5-12.5,6.3-15.8,4.5c-7.1-3.9,6.7-16.1,1.6-21c-5.1-4.9-12.6,25.2-20.7,19.4
			c-8.1-5.9,4.8-15.1-3.3-20s-16.2-9.7-9.4-22.9s18.9-8.3,17-0.3c-1.9,8-6.8,14.1-6.8,14.1s6.9-4.1,9.8-12.2c2.9-8-2.3-16-14.2-12.8
			s-19.7,21.5-18,29.9c1.7,8.4-8.2,19.6-23.8,41.8c-15.6,22.3-40.8,72.7-47.8,70.8s7-61.1,17.3-100.3s22.1-82.1,22.1-82.1
			s-16.8,41-34.6,111.3s-23.7,124.8-13.3,125s21.4-3.1,23.2-12.1c1.9-9-23.2-10.6-1.7-44s63.4-93.4,68.4-93.3c5,0,2.2,15.1,11.2,15
			c9-0.2,13.9-7.2,13.9-7.2s1.1,7,8.1,6.9c3.4-0.1,10.4-4.6,16.8-9.3c0.7,4.6,3.1,8,8.2,7.9c14-0.2,16.9-7.3,16.9-7.3
			s2.5,7,12.8,6.8c10.3-0.2,25.8-32.4,25.8-32.4s-4.8,30,0.1,63.4c-5.9,9.5-11.7,19.5-17.5,29.9c-27.2,48.5-32.6,82.6-12.6,81.2
			s36.7-17.6,37-58.6c0.1-16.7-1.6-33.6-3.1-49.6c20.9-33.8,47.7-67.3,72.5-80.3c36.1-18.9,84.3-7.7,84.3-7.7
			S622.1,449.7,587.4,471.4L587.4,471.4z M500.1,653.6c-22.5,8.7-23.9-12.3-3.6-55.7c5.7-12.3,13-26,21.4-39.9
			C524.5,594,522.6,645,500.1,653.6z"/>
	</g>
</g>
<path class="st0" d="M627.7,348.6c-1.4,2.5-3.9,4.1-6.7,4.7c-7.1,1.4-16.2-1.6-22.7-4.6c-2.1-0.8-4.1-1.8-6.1-2.8
	c3.5-5.1,7.5-9.8,10.8-14.9c7.4-11.3,7.7-25.8-0.2-37.2c-1.7-2.5-3.7-4.3-6-5.3c0,0,0,0-0.1,0c-0.1,0-0.2-0.1-0.3-0.1c0,0,0,0,0,0
	c-3.9-1.7-8.2-1.4-12.3-0.2c-0.2,0.2-0.5,0.4-0.9,0.5c-1.1,1.1-2.3,2.1-3.3,3.2c-0.7,0.8-1.3,1.6-1.8,2.5c-0.2,0.3-0.3,0.5-0.4,0.8
	c0,0.1-0.1,0.2-0.1,0.2c-0.1,0.1-0.1,0.3-0.2,0.4c-0.3,0.8-0.6,1.6-0.9,2.4c-0.2,1.9-0.6,3.9-1.8,5.3c-0.9,1-2.1,1.5-3.4,1.2
	c-0.2,0-0.3-0.1-0.5-0.2c-0.2,0-0.4-0.1-0.6-0.2c-1.3-0.7-2.5-1.6-3.6-2.5c-1.5-0.6-3-1-4.6-0.8c-2.3,0.2-4.5,1.3-6.2,3
	c-3.8,3.9-3.8,9.8-1.7,14.5c0.2,0.4,0.4,0.9,0.6,1.3c0.2,0.4,0.4,0.8,0.6,1.2c1.1,3.1,3.8,5.8,6,8.1c2.6,2.8,5.5,5.4,8.5,7.8
	c5.3,4.2,11.1,7.9,17.2,10.9c-2.7,4.2-5.7,8.1-9,11.6c-4.5,4.7-10,9-15.9,11.7c-3.8,1.8-7.9,2.7-12,3.2c2.5,1.8,8.2-0.4,10.5-1.2
	c5.4-1.8,10.6-4.3,15.3-7.7c6-4.4,10.1-10,14.1-16.1c1.8,1,3.6,1.9,5.5,2.8c3.3,1.4,6.8,2.5,10.4,3.2c3.8,0.7,7.9,1.2,11.7,0.2
	c0.1,0,0.3-0.1,0.4-0.1c2.8-0.2,5.5-1,7.6-3.2C626.4,351.1,627.2,350,627.7,348.6C627.7,348.7,627.7,348.6,627.7,348.6z
	 M589.1,344.2c-2.9-1.7-5.7-3.7-8.4-5.8c-0.2-0.2-0.4-0.4-0.6-0.6c-4-2.9-8-6.1-11.7-9.6c-6.2-4.5-12.5-9.9-11-17.4
	c0.4-2,2.7-3,4.5-2.6c2.3,0.5,4.4,1.8,6.2,3.4c1.3,1,2.5,2.1,3.6,3.3c0.2,0.1,0.3,0.2,0.5,0.2c0.7,0.2,1.4,0.4,2.2,0.4
	c1.6-0.3,2-2.6,2.2-5.4c0.4-3.6,0.5-7.1,1.7-10.5c1.6-4.8,4.7-9.7,10.4-9.6c13.7,0.3,12.7,19.4,10.2,28.9c-1,4.7-2.6,9.4-4.3,13.7
	C593.1,336.7,591.3,340.5,589.1,344.2z"/>
</svg>
